<?xml version="1.0" encoding="UTF-8" standalone="no"?>
<svg width="750px" height="500px" viewBox="0 0 750 500" version="1.1" xmlns="http://www.w3.org/2000/svg" xmlns:xlink="http://www.w3.org/1999/xlink" xmlns:sketch="http://www.bohemiancoding.com/sketch/ns">
    <title>complexRound</title>
    <description>Created with Sketch (http://www.bohemiancoding.com/sketch)</description>
    <defs></defs>
    <g id="Maps" stroke="none" stroke-width="1" fill="none" fill-rule="evenodd" sketch:type="MSPage">
        <g id="complexRound" sketch:type="MSArtboardGroup" stroke="#333333" stroke-width="10">
            <g sketch:type="MSLayerGroup" transform="translate(39.500000, 34.500000)">
                <path d="M129,69.7877731 C212.5,69.7877731 159.16221,-0.0999984741 221.23922,-0.0999984741 L356.844,-0.0999984741 C404.6114,-0.0999984741 360.5,69.7877731 451.1692,69.7877749" id="Stroke-4" sketch:type="MSShapeGroup"></path>
                <path d="M0.118932039,167.3625 C0.118932039,221.272435 43.7714912,264.975 97.6267398,264.975 L428.176147,264.975 C482.028235,264.975 525.683955,221.269015 525.683955,167.3625 C525.683955,113.452603 482.031367,69.75 428.176147,69.75 L97.6267398,69.75 C43.7746799,69.75 0.118932039,113.455938 0.118932039,167.3625 Z" id="Stroke-1" sketch:type="MSShapeGroup"></path>
                <path d="M406.148904,264.966541 C338.912653,264.966541 380.265507,335.276557 321.738942,335.276557 C294.846895,335.276557 208.346428,335.276556 178.629478,335.276557 C126.51677,335.276557 170.085864,265 94.8483,265" id="Stroke-7" sketch:type="MSShapeGroup"></path>
                <path d="M290,265 C290,265 322,265.000002 396.625414,265 C471.503894,264.999998 517.02321,347.604591 530.3991,375.652151 C565.93,450.156151 685.1832,434.190951 685.1832,375.652151 L685.1832,122.323761 C685.1832,65.7646872 621.4726,69.4489495 585.5333,69.4489495 L422.5811,69.4489495" id="Stroke-10" sketch:type="MSShapeGroup"></path>
            </g>
        </g>
    </g>
</svg>