<?xml version="1.0" encoding="UTF-8" standalone="no"?>
<svg width="750px" height="500px" viewBox="0 0 750 500" version="1.1" xmlns="http://www.w3.org/2000/svg" xmlns:xlink="http://www.w3.org/1999/xlink" xmlns:sketch="http://www.bohemiancoding.com/sketch/ns">
    <title>complexRound</title>
    <description>Created with Sketch (http://www.bohemiancoding.com/sketch)</description>
    <defs>
        <path id="path-1" d="M102.7448,0.3546 C46.00043,0.3546 0,46.3608 0,103.1046 L0,103.1046 C0,159.8518 45.99707,205.8546 102.7448,205.8546 L451.0475,205.8546 C507.7919,205.8546 553.7923,159.8483 553.7923,103.1046 L553.7923,103.1046 C553.7923,46.3573 507.7952,0.3546 451.0475,0.3546 L102.7448,0.3546 L102.7448,0.3546 Z"></path>
        <mask id="mask-2" sketch:name="Clip 2" fill="white">
            <use xlink:href="#path-1"></use>
        </mask>
        <path id="path-3" d="M0.1237,69.8877962 C83.0292,73.6133227 31.1622,0 93.2392,0 L228.844,0 C276.6114,0 233.7293,69.8877962 323.1692,69.8877962"></path>
        <mask id="mask-4" sketch:name="Clip 5" fill="white">
            <use xlink:href="#path-3"></use>
        </mask>
        <path id="path-5" d="M317.5846,0.190018317 C238.7631,-5.11371337 290.6301,70.5 231.0035,70.5 L85.2042,70.5 C32.112,70.5 82.7538,0.190018317 -0.1517,0.190018317"></path>
        <mask id="mask-6" sketch:name="Clip 8" fill="white">
            <use xlink:href="#path-5"></use>
        </mask>
        <path id="path-7" d="M6.49999976,205.966484 C34.4999988,205.966484 -42.7499057,205.966494 37.3750472,205.96648 C117.5,205.966469 158.965575,278.483638 172.3991,306.652121 C207.93,381.156101 327.1832,365.190961 327.1832,306.652121 L327.1832,53.3237509 C327.1832,-3.23534914 263.4726,0.44895086 227.5333,0.44895086 L64.5811,0.44895086"></path>
        <mask id="mask-8" sketch:name="Clip 11" fill="white">
            <use xlink:href="#path-7"></use>
        </mask>
    </defs>
    <g id="Maps" stroke="none" stroke-width="1" fill="none" fill-rule="evenodd" sketch:type="MSPage">
        <g id="complexRound" sketch:type="MSArtboardGroup">
            <g sketch:type="MSLayerGroup" transform="translate(25.500000, 35.500000)">
                <g id="Group-3" transform="translate(0.000000, 63.000000)">
                    <g id="Clip-2"></g>
                    <path d="M102.7448,0.400001526 C46.00043,0.400001526 0,46.4062515 0,103.150002 L0,103.150002 C0,159.897302 45.99707,205.900002 102.7448,205.900002 L451.0475,205.900002 C507.7919,205.900002 553.7923,159.893702 553.7923,103.150002 L553.7923,103.150002 C553.7923,46.4027415 507.7952,0.400001526 451.0475,0.400001526 L102.7448,0.400001526 L102.7448,0.400001526 Z" id="Stroke-1" stroke="#333333" stroke-width="20" sketch:type="MSShapeGroup" mask="url(#mask-2)"></path>
                </g>
                <g id="Group-6" transform="translate(142.000000, 0.000000)">
                    <g id="Clip-5"></g>
                    <path d="M0.1237,69.8877734 C83.02918,73.6133 31.16221,0 93.23922,0 L228.844,0 C276.6114,0 233.7293,69.8877734 323.1692,69.8877734" id="Stroke-4" stroke="#333333" stroke-width="20" sketch:type="MSShapeGroup" mask="url(#mask-4)"></path>
                </g>
                <g id="Group-9" transform="translate(90.000000, 268.000000)">
                    <g id="Clip-8"></g>
                    <path d="M317.5846,0.189972426 C238.76313,-5.11379368 290.63011,70.5 231.0035,70.5 C203.606,70.5 115.4797,70.4999986 85.2042,70.5 C32.112,70.5 82.7538,0.189983899 -0.1517,0.189983899" id="Stroke-7" stroke="#333333" stroke-width="20" sketch:type="MSShapeGroup" mask="url(#mask-6)"></path>
                </g>
                <g id="Group-12" transform="translate(372.000000, 63.000000)">
                    <g id="Clip-11"></g>
                    <path d="M27.5,205.837425 C35.5000007,205.837425 -36.2491701,206.674858 38.625414,205.837423 C113.499998,204.999992 159.02321,277.604591 172.3991,305.652151 C207.93,380.156151 327.1832,364.190951 327.1832,305.652151 L327.1832,52.3237612 C327.1832,-4.23531281 263.4726,-0.551050486 227.5333,-0.551050486 L64.5811,-0.551050486" id="Stroke-10" stroke="#333333" stroke-width="20" sketch:type="MSShapeGroup" mask="url(#mask-8)"></path>
                </g>
            </g>
        </g>
    </g>
</svg>