<?xml version="1.0" encoding="UTF-8" standalone="no"?>
<svg width="38px" height="41px" viewBox="0 0 38 41" version="1.1" xmlns="http://www.w3.org/2000/svg" xmlns:xlink="http://www.w3.org/1999/xlink" xmlns:sketch="http://www.bohemiancoding.com/sketch/ns">
	<title>container</title>
	<description>Created with Sketch (http://www.bohemiancoding.com/sketch)</description>
	<defs>
		<linearGradient x1="50%" y1="0%" x2="50%" y2="100%" id="linearGradient-1">
			<stop stop-color="#91BF50" offset="0%"></stop>
			<stop stop-color="#6B992A" offset="100%"></stop>
		</linearGradient>
	</defs>
	<g id="Showcase" stroke="none" stroke-width="1" fill="none" fill-rule="evenodd" sketch:type="MSPage">
		<g id="main" sketch:type="MSArtboardGroup" transform="translate(-1000.000000, -108.000000)" fill="url(#linearGradient-1)">
			<g id="right" sketch:type="MSLayerGroup" transform="translate(970.000000, 0.000000)">
				<g id="container" transform="translate(20.000000, 88.000000)" sketch:type="MSShapeGroup">
					<g id="box" transform="translate(10.000000, 20.500000)">
						<path d="M35.9143182,7.41666667 L19,1.42108547e-14 L2.08568182,7.42083333 L0,8.33333333 L0,31.6666667 L17.2727273,39.2416667 L19,40 L20.7272727,39.2416667 L38,31.6666667 L38,8.33333333 L35.9143182,7.41666667 Z M19.4064475,3.92156863 L32.3404255,9.41176471 L19.4064475,14.9019608 L6.46808511,9.41176471 L19.4064475,3.92156863 Z M32.4521337,18.6358716 C32.1770024,18.1867674 31.8284387,17.8614439 31.4064337,17.6598897 C30.9844854,17.4582788 30.5068702,17.37272 29.9735595,17.4032251 C29.4402863,17.4336927 28.8741595,17.5791999 28.2751341,17.8397793 C27.4425902,18.2019405 26.6939195,18.6995495 26.0290397,19.3326811 C25.3640799,19.9658926 24.8031713,20.6843254 24.3462845,21.4880133 C23.8893011,22.2917978 23.5388945,23.1530182 23.2950746,24.0716798 C23.0511855,24.9904106 22.9291807,25.9242852 22.9291084,26.8732799 C22.9290378,27.7985497 23.0509866,28.6083496 23.2950096,29.3026528 C23.5391007,29.9968878 23.8900543,30.5406905 24.3479008,30.9340572 C24.805842,31.3273292 25.3681214,31.5475377 26.0347438,31.5947014 C26.7014447,31.6417865 27.4520515,31.4832552 28.2865277,31.1191615 C28.9581794,30.8261106 29.5737225,30.4389993 30.1331409,29.9578509 C30.692513,29.4767487 31.1804608,28.9201637 31.5969842,28.2880935 C32.0134422,27.6560888 32.3483011,26.9649052 32.6015778,26.2145154 C32.8547976,25.4641824 33.011224,24.6790568 33.0708917,23.859085 L30.7527453,24.8693447 C30.6623255,25.7621671 30.4114946,26.5589832 30.0002094,27.2598525 C29.5888492,27.9607968 29.016943,28.4709866 28.2845297,28.790381 C27.7453921,29.0254908 27.2875575,29.1036135 26.9110362,29.0247277 C26.5345468,28.94581 26.2292501,28.7557962 25.9951379,28.4546798 C25.7610586,28.1535306 25.590549,27.7742608 25.4835933,27.3168695 C25.3766565,26.8594594 25.3231048,26.3639615 25.3229227,25.8303749 C25.3227324,25.2730733 25.3759027,24.710327 25.4824207,24.1421337 C25.5889193,23.5739599 25.7589203,23.0344837 25.9924184,22.5236995 C26.2258831,22.0129486 26.5304622,21.554271 26.9061659,21.1476518 C27.2818378,20.7410644 27.7388191,20.4206373 28.2771474,20.1863368 C28.5717044,20.0581346 28.8536147,19.9917477 29.1228948,19.9871661 C29.3921854,19.9825739 29.6335976,20.0345614 29.847142,20.1431269 C30.0607014,20.2516774 30.2387557,20.4082697 30.3813091,20.6129099 C30.5238758,20.8175369 30.6156857,21.0709219 30.6567352,21.3730792 L32.9734503,20.3642509 C32.901099,19.6610329 32.7273195,19.0849212 32.4521337,18.6358716 Z" id="Shape"></path>
					</g>
				</g>
			</g>
		</g>
	</g>
</svg>