<?xml version="1.0" encoding="UTF-8" standalone="no"?>
<svg width="15px" height="15px" viewBox="0 0 15 15" version="1.1" xmlns="http://www.w3.org/2000/svg" xmlns:xlink="http://www.w3.org/1999/xlink" xmlns:sketch="http://www.bohemiancoding.com/sketch/ns">
    <title>logout</title>
    <description>Created with Sketch (http://www.bohemiancoding.com/sketch)</description>
    <defs></defs>
    <g id="Showcase" stroke="none" stroke-width="1" fill="none" fill-rule="evenodd" sketch:type="MSPage">
        <g id="main" sketch:type="MSArtboardGroup" transform="translate(-933.000000, -22.000000)" fill="#FF9900">
            <g id="middle" sketch:type="MSLayerGroup" transform="translate(240.000000, 10.000000)">
                <g id="head" sketch:type="MSShapeGroup">
                    <path d="M703.185811,12.4952326 C706.001323,13.5754452 708,16.3043145 708,19.5 C708,23.6421358 704.642136,27 700.5,27 C696.357864,27 693,23.6421358 693,19.5 C693,16.3427952 694.950832,13.641232 697.712838,12.5349697 L697.712838,15.9539085 C696.663618,16.7797187 695.989865,18.0611776 695.989865,19.5 C695.989865,21.990879 698.009121,24.0101351 700.5,24.0101351 C702.990879,24.0101351 705.010135,21.990879 705.010135,19.5 C705.010135,18.0153666 704.292796,16.6982769 703.185811,15.8764243 L703.185811,12.4952326 L703.185811,12.4952326 Z M699.385135,12 L699.385135,19.9142081 C699.385135,20.5250694 699.879984,21.0202703 700.486935,21.0202703 L700.513065,21.0202703 C701.121572,21.0202703 701.614865,20.5353014 701.614865,19.9142081 L701.614865,12 L699.385135,12 Z" id="off"></path>
                </g>
            </g>
        </g>
        <g sketch:type="MSArtboardGroup" transform="translate(-1458.000000, -173.000000)"></g>
    </g>
</svg>