<?xml version="1.0" encoding="UTF-8" standalone="no"?>
<svg width="26px" height="26px" viewBox="0 0 26 26" version="1.1" xmlns="http://www.w3.org/2000/svg" xmlns:xlink="http://www.w3.org/1999/xlink" xmlns:sketch="http://www.bohemiancoding.com/sketch/ns">
    <title>point</title>
    <description>Created with Sketch (http://www.bohemiancoding.com/sketch)</description>
    <defs>
        <linearGradient x1="50%" y1="0%" x2="50%" y2="100%" id="linearGradient-1">
            <stop stop-color="#A8322D" offset="0%"></stop>
            <stop stop-color="#992D29" offset="100%"></stop>
        </linearGradient>
        <circle id="path-2" cx="383" cy="13" r="13"></circle>
        <path d="M383,25 C389.627417,25 395,19.6274173 395,13 C395,6.37258267 389.627417,1 383,1 C376.372583,1 371,6.37258267 371,13 C371,19.6274173 376.372583,25 383,25 Z M383,23.5 C388.79899,23.5 393.5,18.7989902 393.5,13 C393.5,7.20100984 388.79899,2.5 383,2.5 C377.20101,2.5 372.5,7.20100984 372.5,13 C372.5,18.7989902 377.20101,23.5 383,23.5 Z" id="path-3"></path>
    </defs>
    <g id="Showcase" stroke="none" stroke-width="1" fill="none" fill-rule="evenodd" sketch:type="MSPage">
        <g id="main" sketch:type="MSArtboardGroup" transform="translate(-626.000000, -111.000000)">
            <g id="middle" sketch:type="MSLayerGroup" transform="translate(240.000000, 10.000000)">
                <g id="map" transform="translate(10.000000, 101.000000)">
                    <g id="points" transform="translate(6.000000, 0.000000)">
                        <g id="point3">
                            <use fill="url(#linearGradient-1)" fill-rule="evenodd" sketch:type="MSShapeGroup" xlink:href="#path-2"></use>
                            <use fill="none" xlink:href="#path-2"></use>
                        </g>
                        <g id="point3">
                            <use fill="#FFFFFF" fill-rule="evenodd" sketch:type="MSShapeGroup" xlink:href="#path-3"></use>
                            <use fill="none" xlink:href="#path-3"></use>
                        </g>
                    </g>
                </g>
            </g>
        </g>
    </g>
</svg>