<?xml version="1.0" encoding="UTF-8" standalone="no"?>
<svg width="30px" height="26px" viewBox="0 0 30 26" version="1.1" xmlns="http://www.w3.org/2000/svg" xmlns:xlink="http://www.w3.org/1999/xlink" xmlns:sketch="http://www.bohemiancoding.com/sketch/ns">
    <title>station</title>
    <description>Created with Sketch (http://www.bohemiancoding.com/sketch)</description>
    <defs>
        <linearGradient x1="50%" y1="0%" x2="50%" y2="100%" id="linearGradient-1">
            <stop stop-color="#75A82D" offset="0%"></stop>
            <stop stop-color="#6A9929" offset="100%"></stop>
        </linearGradient>
        <path id="path-2" d="M372.468085,123 L393.531915,123 L393.531915,109.071429 L398,109.071429 L383,97 L368,109.071429 L372.468085,109.071429 L372.468085,123 Z"></path>
        <path d="M373.300049,122.266667 L392.699951,122.266667 L392.699951,108.266667 L395.599976,108.266667 L383,98.1000061 L370.300049,108.266667 L373.300049,108.266667 L373.300049,122.266667 Z M375.034173,120.700012 L391.05952,120.700012 L391.05952,107 L391.800049,107 L383,100.180751 L374.199951,107 L375.034173,107 L375.034173,120.700012 Z" id="path-3"></path>
    </defs>
    <g id="Showcase" stroke="none" stroke-width="1" fill="none" fill-rule="evenodd" sketch:type="MSPage">
        <g id="main" sketch:type="MSArtboardGroup" transform="translate(-624.000000, -208.000000)">
            <g id="middle" sketch:type="MSLayerGroup" transform="translate(240.000000, 10.000000)">
                <g id="map" transform="translate(10.000000, 101.000000)">
                    <g id="points" transform="translate(6.000000, 0.000000)">
                        <g id="house1">
                            <use fill="url(#linearGradient-1)" fill-rule="evenodd" sketch:type="MSShapeGroup" xlink:href="#path-2"></use>
                            <use fill="none" xlink:href="#path-2"></use>
                        </g>
                        <g id="house1">
                            <use fill="#FFFFFF" fill-rule="evenodd" sketch:type="MSShapeGroup" xlink:href="#path-3"></use>
                            <use fill="none" xlink:href="#path-3"></use>
                        </g>
                    </g>
                </g>
            </g>
        </g>
    </g>
</svg>